<?xml version="1.0" encoding="utf-8"?>
<!-- Generator: Adobe Illustrator 21.0.0, SVG Export Plug-In . SVG Version: 6.00 Build 0)  -->
<svg version="1.1" id="Layer_1" xmlns="http://www.w3.org/2000/svg" xmlns:xlink="http://www.w3.org/1999/xlink" x="0px" y="0px"
	 viewBox="0 0 11 12" style="enable-background:new 0 0 11 12;" xml:space="preserve">
<style type="text/css">
	.st0{fill:#81888F;}
	.st1{fill:#64C76C;}
	.st2{fill:#DCE1E6;}
</style>
<g>
	<polygon points="9,1 9,0 8,0 8,1 3,1 3,0 2,0 2,1 0,1 0,3 11,3 11,1 	"/>
	<rect y="10" width="2" height="2"/>
	<rect x="3" y="10" width="2" height="2"/>
	<rect x="6" y="10" width="2" height="2"/>
	<rect x="9" y="10" width="2" height="2"/>
	<rect y="7" width="2" height="2"/>
	<rect x="3" y="7" width="2" height="2"/>
	<rect x="6" y="7" width="2" height="2"/>
	<rect x="9" y="7" width="2" height="2"/>
	<rect y="4" width="2" height="2"/>
	<rect x="3" y="4" width="2" height="2"/>
	<rect x="6" y="4" width="2" height="2"/>
	<rect x="9" y="4" width="2" height="2"/>
</g>
</svg>
