<?xml version="1.0" encoding="utf-8"?>
<!-- Generator: Adobe Illustrator 21.0.0, SVG Export Plug-In . SVG Version: 6.00 Build 0)  -->
<svg version="1.1" id="Layer_1" xmlns="http://www.w3.org/2000/svg" xmlns:xlink="http://www.w3.org/1999/xlink" x="0px" y="0px"
	 viewBox="0 0 32 32" style="enable-background:new 0 0 32 32;" xml:space="preserve">
<style type="text/css">
	.st0{fill:#ffffff;}
	.st1{fill:#ffffff;}
</style>
<g>
	<path fill="#ffffff" d="M9.1,16.4c-0.1-0.2-0.1-0.5,0-0.8c0.1-0.1,0.1-0.2,0.2-0.3l6-6c0.4-0.4,1-0.4,1.4,0s0.4,1,0,1.4L12.4,15H22
		c0.6,0,1,0.4,1,1c0,0.6-0.4,1-1,1h-9.6l4.3,4.3c0.4,0.4,0.4,1,0,1.4C16.5,22.9,16.3,23,16,23c-0.3,0-0.5-0.1-0.7-0.3l-6-6
		C9.2,16.6,9.1,16.5,9.1,16.4z"/>
	<path fill="#ffffff" d="M16,2c7.7,0,14,6.3,14,14s-6.3,14-14,14S2,23.7,2,16S8.3,2,16,2 M16,0C7.2,0,0,7.2,0,16s7.2,16,16,16s16-7.2,16-16
		S24.8,0,16,0L16,0z"/>
</g>
</svg>
